<mxfile host="app.diagrams.net" modified="2023-11-16T02:05:36.112Z" agent="Mozilla/5.0 (X11; Linux x86_64) AppleWebKit/537.36 (KHTML, like Gecko) Chrome/119.0.0.0 Safari/537.36" version="22.1.2" etag="ZLg7AHCVAlhfttsbZIe7" type="github">
  <diagram name="第 1 页" id="Lb2YFSU_yFvL5ie3x2sJ">
    <mxGraphModel>
      <root>
        <mxCell id="0" />
        <mxCell id="1" parent="0" />
      </root>
    </mxGraphModel>
  </diagram>
</mxfile>
